# xmcd
#
# Track frame offsets:
#	183
#	13870
#	27105
#	41660
#	52895
#	65445
#	80693
#	94673
#	106230
#	121643
#	132970
#	144828
#	160278
#	175405
#
# Disc length: 2510 seconds
#
# Revision: 0
# Processed by: cddbd v1.5.1PL0 Copyright (c) Steve Scherf et al.
# Submitted via: dBpowerAMP V4.0
#
DISCID=af09cc0e
DTITLE=Jo Privat - Au Temps De Balajo
DYEAR=1900
DGENRE=Tango
TTITLE0=Balajo (Valse)
TTITLE1=Accordéon...Bandonéon (Bossa)
TTITLE2=Le Zingaro (Tango)
TTITLE3=Olé Jo (Paso Doble)
TTITLE4=Fantaisie Mineure (Mazurka)
TTITLE5=L'enfant Gitan (Cha-Cha)
TTITLE6=Muria (Valse Italienne)
TTITLE7=Sa Préférée (Valse)
TTITLE8=Au Temps Du Balajo (Java)
TTITLE9=Au Temps Du Swing (Swing)
TTITLE10=Miroir (Slow)
TTITLE11=Bolivar 68-19 (Rock)
TTITLE12=Back-Back (Valse)
TTITLE13=Fine Fleur (Valse Musette)
EXTD=
EXTT0=
EXTT1=
EXTT2=
EXTT3=
EXTT4=
EXTT5=
EXTT6=
EXTT7=
EXTT8=
EXTT9=
EXTT10=
EXTT11=
EXTT12=
EXTT13=
PLAYORDER=
